<svg width="200" height="200" viewBox="0 0 200 200" fill="none" xmlns="http://www.w3.org/2000/svg">
<path d="M48.046 174.15H152.729C163.246 174.15 171.773 165.625 171.773 155.107V44.0449C171.773 33.5269 163.246 25 152.729 25H48.046C37.527 25 29 33.5269 29 44.0449V155.107C29 165.624 37.527 174.15 48.046 174.15Z" fill="url(#paint0_linear_2864_342)"/>
<path d="M48.046 174.15H152.729C163.246 174.15 171.773 165.625 171.773 155.107V138.713C151.99 134.929 127.242 132.683 100.386 132.683C73.53 132.683 48.782 134.929 29 138.713V155.107C29 165.624 37.527 174.15 48.046 174.15Z" fill="url(#paint1_linear_2864_342)"/>
<path d="M42.871 94.3369H157.906V45.521H42.871V94.3369Z" fill="url(#paint2_linear_2864_342)"/>
<path d="M154.7 103.464H134.963V132.233V138.818V150.526H154.7V138.818V132.233V103.464ZM125.078 103.464H105.342V121.757H125.078V103.464ZM95.457 103.464H75.721V121.757H95.457V103.464ZM65.836 103.464H46.099V121.757H65.836V103.464ZM46.099 132.233V150.526H65.836V132.233H46.099ZM75.721 132.233H95.457V150.526H75.721V132.233ZM105.342 132.233H125.078V150.526H105.342V132.233Z" fill="url(#paint3_linear_2864_342)"/>
<path d="M60.89 85.3579C64.383 85.3099 67.3379 84.259 69.7559 82.208C72.1759 80.154 73.7259 77.3902 74.4069 73.9092H68.3539C67.8349 75.6852 66.9219 77.0803 65.6179 78.0903C64.3099 79.0983 62.7349 79.6123 60.8889 79.6333C58.4899 79.5803 56.5289 78.752 55.0039 77.147C53.4779 75.542 52.6919 73.467 52.6399 70.918C52.6919 68.367 53.4779 66.2802 55.0039 64.6562C56.5279 63.0323 58.4889 62.1932 60.8889 62.1392C62.6589 62.1562 64.1889 62.6342 65.4809 63.5742C66.7739 64.5122 67.7139 65.8083 68.2999 67.4653H74.3209C73.6199 64.1223 72.0649 61.4563 69.6559 59.4673C67.2469 57.4773 64.3239 56.4572 60.8879 56.4082C58.1459 56.4342 55.6999 57.076 53.5499 58.334C51.4019 59.592 49.7059 61.3089 48.4629 63.4829C47.2199 65.6599 46.5859 68.136 46.5609 70.918C46.5859 73.677 47.2199 76.1412 48.4629 78.3052C49.7059 80.4712 51.4009 82.182 53.5499 83.437C55.7019 84.691 58.147 85.3309 60.89 85.3579Z" fill="#8962CF"/>
<path d="M91.8859 85.3652C94.7249 85.3402 97.2509 84.7012 99.4609 83.4492C101.671 82.1972 103.41 80.487 104.684 78.314C105.955 76.144 106.606 73.6673 106.631 70.8823C106.606 68.0993 105.955 65.6202 104.684 63.4482C103.411 61.2782 101.671 59.565 99.4609 58.314C97.2509 57.063 94.7249 56.4239 91.8859 56.3989C89.0329 56.4239 86.4999 57.0663 84.2809 58.3213C82.0599 59.5783 80.3099 61.2919 79.0309 63.4619C77.7539 65.6359 77.1029 68.1083 77.0759 70.8823C77.1029 73.6553 77.7539 76.1283 79.0309 78.3003C80.3099 80.4733 82.0599 82.1859 84.2809 83.4419C86.4999 84.6969 89.0329 85.3392 91.8859 85.3652ZM91.8859 79.7031C89.3569 79.6471 87.284 78.803 85.666 77.166C84.046 75.532 83.2109 73.4373 83.1549 70.8833C83.2109 68.3283 84.046 66.2351 85.666 64.5981C87.284 62.9631 89.3559 62.119 91.8859 62.063C94.4119 62.116 96.4759 62.956 98.0739 64.584C99.6739 66.212 100.499 68.3113 100.553 70.8833C100.499 73.4553 99.6739 75.5541 98.0739 77.1821C96.4759 78.8101 94.4119 79.6501 91.8859 79.7031Z" fill="#8962CF"/>
<path d="M130.302 76.7031C130.264 74.7281 129.772 73.2012 128.823 72.1172C127.875 71.0322 126.699 70.2263 125.298 69.6963C123.896 69.1663 122.496 68.7461 121.096 68.4351C119.662 68.1151 118.455 67.74 117.476 67.312C116.498 66.882 115.99 66.2099 115.95 65.2939C115.992 64.4779 116.392 63.8753 117.151 63.4873C117.908 63.0983 118.78 62.9062 119.758 62.9092C120.866 62.9062 121.811 63.1772 122.589 63.7202C123.365 64.2642 123.771 65.0959 123.805 66.2139H129.511C129.499 63.9159 128.867 62.0479 127.613 60.6089C126.357 59.1709 124.547 58.2589 122.175 57.8789V55.2622H117.579V57.8403C115.272 58.1783 113.473 59.0053 112.178 60.3203C110.883 61.6343 110.226 63.3843 110.204 65.5693C110.239 67.4703 110.713 68.942 111.621 69.981C112.531 71.021 113.667 71.7933 115.024 72.2983C116.383 72.8033 117.751 73.2039 119.131 73.5029C120.612 73.8129 121.858 74.1902 122.865 74.6362C123.875 75.0812 124.399 75.8009 124.441 76.7959C124.395 77.7409 123.944 78.4733 123.088 78.9873C122.23 79.5033 121.236 79.764 120.106 79.77C118.905 79.772 117.874 79.4713 117.015 78.8643C116.159 78.2593 115.708 77.3343 115.668 76.0933H109.845C109.875 78.5773 110.608 80.5872 112.045 82.1182C113.482 83.6512 115.444 84.6101 117.935 84.9971V87.7681H122.491V84.9561C124.781 84.6111 126.646 83.75 128.083 82.375C129.518 80.999 130.256 79.1091 130.302 76.7031Z" fill="#8962CF"/>
<path d="M154.212 57.0093H132.797V62.5869H140.515V84.7593H146.499V62.5869H154.212V57.0093Z" fill="#8962CF"/>
<defs>
<linearGradient id="paint0_linear_2864_342" x1="172.86" y1="98.5023" x2="27.9045" y2="100.649" gradientUnits="userSpaceOnUse">
<stop stop-color="#8C63CF"/>
<stop offset="1" stop-color="#3647D3"/>
</linearGradient>
<linearGradient id="paint1_linear_2864_342" x1="29.9508" y1="129.882" x2="170.625" y2="177.531" gradientUnits="userSpaceOnUse">
<stop stop-color="#293392"/>
<stop offset="0.9608" stop-color="#04C1F3"/>
<stop offset="1" stop-color="#04C1F3"/>
</linearGradient>
<linearGradient id="paint2_linear_2864_342" x1="92.0297" y1="96.8993" x2="108.744" y2="42.9549" gradientUnits="userSpaceOnUse">
<stop stop-color="#00CCCC"/>
<stop offset="1" stop-color="#97F5F5"/>
</linearGradient>
<linearGradient id="paint3_linear_2864_342" x1="92.4407" y1="152.755" x2="108.349" y2="101.248" gradientUnits="userSpaceOnUse">
<stop stop-color="#00CCCC"/>
<stop offset="1" stop-color="#97F5F5"/>
</linearGradient>
</defs>
</svg>
